<?xml version="1.0" encoding="UTF-8" standalone="no"?>
<svg
   xmlns:dc="http://purl.org/dc/elements/1.1/"
   xmlns:cc="http://creativecommons.org/ns#"
   xmlns:rdf="http://www.w3.org/1999/02/22-rdf-syntax-ns#"
   xmlns:svg="http://www.w3.org/2000/svg"
   xmlns="http://www.w3.org/2000/svg"
   xmlns:sodipodi="http://sodipodi.sourceforge.net/DTD/sodipodi-0.dtd"
   xmlns:inkscape="http://www.inkscape.org/namespaces/inkscape"
   version="1.1"
   width="165.61909"
   height="166.0697"
   id="svg3748"
   sodipodi:docname="logo.svg"
   inkscape:export-filename="C:\Users\pavli\Desktop\Sokol\frontend\assets\img\favicon\48x48.png"
   inkscape:export-xdpi="27.822876"
   inkscape:export-ydpi="27.822876"
   inkscape:version="0.92.4 (5da689c313, 2019-01-14)">
  <metadata
     id="metadata3754">
    <rdf:RDF>
      <cc:Work
         rdf:about="">
        <dc:format>image/svg+xml</dc:format>
        <dc:type
           rdf:resource="http://purl.org/dc/dcmitype/StillImage" />
      </cc:Work>
    </rdf:RDF>
  </metadata>
  <defs
     id="defs3752" />
  <sodipodi:namedview
     pagecolor="#ffffff"
     bordercolor="#666666"
     borderopacity="1"
     objecttolerance="10"
     gridtolerance="10"
     guidetolerance="10"
     inkscape:pageopacity="0"
     inkscape:pageshadow="2"
     inkscape:window-width="1920"
     inkscape:window-height="1051"
     id="namedview3750"
     showgrid="false"
     inkscape:zoom="2"
     inkscape:cx="79.23273"
     inkscape:cy="101.99374"
     inkscape:window-x="-9"
     inkscape:window-y="-9"
     inkscape:window-maximized="1"
     inkscape:current-layer="svg3748" />
  <path
     d="m 82.8096,0 c 45.6099,0 82.8095,37.3008 82.8095,83.0348 0,45.7341 -37.1996,83.0349 -82.8095,83.0349 C 37.1997,166.0697 0,128.7689 0,83.0348 0,37.3008 37.1997,0 82.8096,0 Z"
     style="fill:#e30016;fill-rule:evenodd"
     id="path3740"
     inkscape:export-xdpi="147.98605"
     inkscape:export-ydpi="147.98605"
     inkscape:connector-curvature="0" />
  <path
     d="m 82.8134,3.5587 c 43.7539,0 79.44,35.7375 79.44,79.5541 0,43.8167 -35.6861,79.5541 -79.44,79.5541 -43.7539,0 -79.4401,-35.7374 -79.4401,-79.5541 0,-43.8166 35.6862,-79.5541 79.4401,-79.5541 z m -44.1464,86.9545 12.9003,0.0336 -0.0171,17.5423 9.92,-12.3213 C 58.2383,88.8605 56.6186,82.0642 57.9466,75.8874 61.0929,61.2543 71.9917,50.1242 91.1647,53.5335 c 6.8615,1.2202 14.1491,5.548 18.5969,13.5977 l -0.2445,-40.6313 12.2278,-0.031 0.0313,33.7027 14.0779,-0.0175 0.0483,8.3517 -25.3152,0.0705 c 1.7944,4.2935 2.6693,8.1509 2.3342,12.8802 L 99.0769,73.2851 c -1.0644,-3.0188 -3.0482,-6.231 -6.3871,-7.7482 -5.3995,-3.3068 -12.0572,-1.6733 -14.65,-0.3788 -3.2389,1.5429 -7.7987,6.3896 -9.0227,14.1838 -0.0952,5.6735 0.6325,11.8796 6.1512,16.4388 4.0635,2.5061 7.9329,4.2853 14.8032,1.5119 l 9.7743,7.352 c -4.7929,3.9723 -10.6993,4.7477 -16.1215,4.9421 -7.5298,0.1734 -12.1077,-3.0438 -15.9108,-6.7452 -1.5286,1.1899 -4.54,3.4222 -6.1241,7.1648 3.6798,6.8121 7.6013,11.3961 13.7008,16.174 12.4277,8.6215 31.6626,0.3234 29.8295,-16.2934 C 104.6335,105.2792 98.1463,100.1384 91.6111,96.354 74.9928,86.5905 72.1669,89.3721 71.1319,84.9851 70.336,81.7413 70.9478,78.6625 72.5238,74.6024 c 2.0216,-3.9244 4.7691,-6.541 8.3879,-8.7217 9.7257,4.9601 19.4032,9.7749 29.0323,15.4615 9.417,5.6828 13.8497,10.2516 15.6688,20.0516 2.5766,24.3961 -10.2273,35.7677 -32.5391,40.6003 -7.2705,0.3374 -13.3311,-0.2941 -19.5852,-2.7662 -8.7865,-4.0061 -15.5727,-9.691 -21.2487,-18.7601 l -1.0091,0.0508 -0.0505,15.1202 -12.429,-0.0335 z"
     style="fill:#ffffff;fill-rule:evenodd"
     id="path3742"
     inkscape:export-xdpi="96"
     inkscape:export-ydpi="96"
     inkscape:connector-curvature="0" />
  <path
     d="m 83.1621,9.109 c 40.5047,0 73.541,33.119 73.541,73.7266 0,40.607 -33.0363,73.726 -73.541,73.726 -40.5053,0 -73.5416,-33.119 -73.5416,-73.726 C 9.6205,42.228 42.6568,9.109 83.1621,9.109 Z M 67.3423,57.1615 C 61.6006,38.9993 78.0296,30.4824 92.7141,35.7952 c 4.4247,1.8651 9.6078,5.6494 14.3893,10.6838 l -0.088,-16.9794 C 88.7141,14.9627 63.0991,17.8746 51.5576,33.2511 43.4864,44.0043 41.9957,64.2103 56.0119,75.6525 58.094,68.5961 61.3802,61.0486 67.3423,57.1615 Z"
     style="fill:#e30016;fill-rule:evenodd"
     id="path3744"
     inkscape:connector-curvature="0" />
  <path
     d="m 38.667,90.5132 12.9003,0.0336 -0.0171,17.5423 9.92,-12.3213 C 58.2383,88.8605 56.6186,82.0642 57.9466,75.8874 61.0929,61.2543 71.9917,50.1242 91.1647,53.5335 c 6.8615,1.2202 14.1491,5.548 18.5969,13.5977 l -0.2445,-40.6313 12.2278,-0.031 0.0313,33.7027 14.0779,-0.0175 0.0483,8.3517 -25.3152,0.0705 c 1.7944,4.2935 2.6693,8.1509 2.3342,12.8802 L 99.0769,73.2851 c -1.0644,-3.0188 -3.0482,-6.231 -6.3871,-7.7482 -5.3995,-3.3068 -12.0572,-1.6733 -14.65,-0.3788 -3.2389,1.5429 -7.7987,6.3896 -9.0227,14.1838 -0.0952,5.6735 0.6325,11.8796 6.1512,16.4388 4.0635,2.5061 7.9329,4.2853 14.8032,1.5119 l 9.7743,7.352 c -4.7929,3.9723 -10.6993,4.7477 -16.1215,4.9421 -7.5298,0.1734 -12.1077,-3.0438 -15.9108,-6.7452 -1.5286,1.1899 -4.54,3.4222 -6.1241,7.1648 3.6798,6.8121 7.6013,11.3961 13.7008,16.174 11.5249,7.9951 28.692,1.0452 29.6707,-13.2587 0.1185,-1.7324 -0.2799,-3.905 -1.0211,-5.4938 -0.2289,-0.4912 -0.6103,-1.3455 -0.903,-1.8085 -2.3262,-3.68 -6.5032,-6.4894 -11.4257,-9.2653 C 74.9928,86.5905 72.1669,89.3721 71.1319,84.9851 70.336,81.7413 70.9478,78.6625 72.5238,74.6024 c 2.0216,-3.9244 4.7691,-6.541 8.3879,-8.7217 9.7257,4.9601 19.4032,9.7749 29.0323,15.4615 9.417,5.6828 14.3591,10.2516 16.1782,20.0516 3.2588,30.8561 -26.3113,48.4755 -52.8035,38.0039 -8.7865,-4.0061 -15.4029,-9.8608 -21.0789,-18.9299 l -1.0091,0.0508 -0.0505,15.1202 -12.429,-0.0335 z"
     style="fill:#ffffff;fill-rule:evenodd"
     id="path3746"
     inkscape:connector-curvature="0" />
</svg>
