<?xml version="1.0" encoding="UTF-8" standalone="no"?>
<!-- Created with Inkscape (http://www.inkscape.org/) -->

<svg
   xmlns:dc="http://purl.org/dc/elements/1.1/"
   xmlns:cc="http://creativecommons.org/ns#"
   xmlns:rdf="http://www.w3.org/1999/02/22-rdf-syntax-ns#"
   xmlns:svg="http://www.w3.org/2000/svg"
   xmlns="http://www.w3.org/2000/svg"
   xmlns:sodipodi="http://sodipodi.sourceforge.net/DTD/sodipodi-0.dtd"
   xmlns:inkscape="http://www.inkscape.org/namespaces/inkscape"
   version="1.1"
   id="svg10"
   width="281.51343"
   height="203.37343"
   viewBox="0 0 281.51343 203.37343"
   sodipodi:docname="zlin-logo.svg"
   inkscape:version="0.92.4 (5da689c313, 2019-01-14)">
  <metadata
     id="metadata16">
    <rdf:RDF>
      <cc:Work
         rdf:about="">
        <dc:format>image/svg+xml</dc:format>
        <dc:type
           rdf:resource="http://purl.org/dc/dcmitype/StillImage" />
        <dc:title></dc:title>
      </cc:Work>
    </rdf:RDF>
  </metadata>
  <defs
     id="defs14" />
  <sodipodi:namedview
     pagecolor="#ffffff"
     bordercolor="#666666"
     borderopacity="1"
     objecttolerance="10"
     gridtolerance="10"
     guidetolerance="10"
     inkscape:pageopacity="0"
     inkscape:pageshadow="2"
     inkscape:window-width="1920"
     inkscape:window-height="1051"
     id="namedview12"
     showgrid="true"
     inkscape:zoom="1.2291436"
     inkscape:cx="173.8751"
     inkscape:cy="104.62923"
     inkscape:window-x="-9"
     inkscape:window-y="-9"
     inkscape:window-maximized="1"
     inkscape:current-layer="svg10">
    <inkscape:grid
       type="xygrid"
       id="grid63"
       originx="-3.11444"
       originy="-132.12652" />
  </sodipodi:namedview>
  <g
     id="g61"
     transform="translate(-682.46067,46.955468)"
     style="fill:#000080">
    <path
       style="fill:#fbd033;fill-opacity:1"
       d="m 682.88738,154.54451 c -0.26719,-1.1 -0.36001,-16.4 -0.20626,-33.99994 l 0.27955,-32.000074 34.25,-0.26313 34.25,-0.26313 v 34.013204 c 0,26.52117 -0.27533,34.02241 -1.25,34.05545 -0.6875,0.0233 -16.00718,0.13581 -34.04374,0.25 -32.05229,0.20293 -32.80472,0.1624 -33.27955,-1.79238 z"
       id="path77"
       inkscape:connector-curvature="0" />
    <path
       style="fill:#004878;fill-opacity:1"
       d="m 683.05031,78.300796 c -0.3243,-0.324297 -0.58964,-4.085157 -0.58964,-8.357464 v -7.767839 l 5.77466,-7.315517 c 11.46803,-14.528052 35.22534,-45.7111582 35.22534,-46.2356852 0,-0.29514 -8.6625,-0.65884 -19.25,-0.80822 l -19.25,-0.27159 v -8.9999914 -9.0000074 l 33.25,-0.26348 33.25,-0.263484 v 8.0240714 8.0240414 l -21.05722,26.7394122 -21.05722,26.739425 21.09319,0.269992 21.09319,0.26999 -0.28597,9.730017 -0.28597,9.730019 -33.66036,0.17298 c -18.51319,0.0951 -33.92569,-0.0924 -34.25,-0.41667 z"
       id="path75"
       inkscape:connector-curvature="0" />
    <path
       style="fill:#004878;fill-opacity:1"
       d="m 784.23689,77.984129 c -3.14809,-0.47364 -7.06232,-1.55335 -8.69831,-2.39935 -3.86282,-1.997537 -7.60081,-7.012682 -8.97413,-12.040306 -0.72606,-2.658043 -1.0945,-21.86491 -1.0982,-57.2499922 l -0.006,-53.2499488 h 10.5 10.5 V 4.3444848 c 0,38.5666482 0.29786,51.5978432 1.2,52.4999832 0.66,0.66 3.60074,1.2 6.53498,1.2 h 5.33499 l -0.28499,10.250009 -0.28498,10.250009 -4.5,0.1504 c -2.475,0.0827 -7.0757,-0.23712 -10.22378,-0.710757 z"
       id="path73"
       inkscape:connector-curvature="0" />
    <path
       style="fill:#004878;fill-opacity:1"
       d="m 811.46067,33.960093 v -44.915615 h 10.5103 10.51029 l -0.26029,44.749985 -0.2603,44.750023 -10.25,0.16563 -10.25,0.16563 z"
       id="path71"
       inkscape:connector-curvature="0" />
    <path
       style="fill:#004878;fill-opacity:1"
       d="m 852.46067,33.897493 v -44.852975 h 10.5 10.5 v 2.8295037 2.8295037 l 6.01347,-2.9805537 c 8.39585,-4.1613637 18.13722,-4.7622237 26.43595,-1.63061 7.47432,2.820524 14.57081,9.33357784 17.69302,16.2383991 2.32607,5.1440772 2.35756,5.6611472 2.35756,38.7137022 v 33.500023 l -10.25,0.31398 -10.25,0.31398 v -26.51478 c 0,-27.138282 -0.73975,-34.46283 -3.86202,-38.23921 -6.4444,-7.7944852 -20.65367,-6.8921052 -25.60396,1.62601 -1.88487,3.243359 -2.07068,5.663119 -2.53402,32.999998 l -0.5,29.500022 -10.25,0.10299 -10.25,0.103 V 33.897453 Z"
       id="path69"
       inkscape:connector-curvature="0" />
    <path
       style="fill:#facf32;fill-opacity:1"
       d="m 945.75922,76.085009 c -3.71975,-2.2681 -6.29855,-6.707512 -6.29855,-10.842996 0,-4.170663 3.90311,-9.387235 8.26611,-11.047807 3.30324,-1.25722 4.23352,-1.23064 8.05882,0.23025 8.34853,3.188332 10.849,12.717521 4.99399,19.031896 -4.54074,4.896974 -9.79273,5.816094 -15.02037,2.628617 z"
       id="path67"
       inkscape:connector-curvature="0" />
    <path
       style="fill:#004878;fill-opacity:1"
       d="m 806.83848,-23.497678 c 0.32548,-0.848188 3.79105,-6.023184 7.70126,-11.499985 l 7.10949,-9.957809 13.65572,0.0435 13.65572,0.0435 -6.5,6.001745 c -3.575,3.300954 -9.24991,8.456378 -12.6109,11.456473 l -6.1109,5.454746 h -8.74609 c -7.46974,0 -8.65973,-0.22505 -8.1543,-1.54217 z"
       id="path58"
       inkscape:connector-curvature="0" />
  </g>
</svg>
